<mxfile host="app.diagrams.net" modified="2022-04-21T02:14:49.461Z" agent="5.0 (Windows NT 10.0; Win64; x64) AppleWebKit/537.36 (KHTML, like Gecko) Chrome/100.0.4896.127 Safari/537.36" etag="2dbcTwcZoggk4j2foNl2" version="17.4.6" type="github">
  <diagram id="kgpKYQtTHZ0yAKxKKP6v" name="Page-1">
    <mxGraphModel dx="1422" dy="762" grid="1" gridSize="10" guides="1" tooltips="1" connect="1" arrows="1" fold="1" page="1" pageScale="1" pageWidth="850" pageHeight="1100" math="0" shadow="0">
      <root>
        <mxCell id="0" />
        <mxCell id="1" parent="0" />
        <mxCell id="Nl6Qnyx7027qB_0owJBx-8" value="CS" style="shape=umlLifeline;perimeter=lifelinePerimeter;whiteSpace=wrap;html=1;container=1;collapsible=0;recursiveResize=0;outlineConnect=0;" parent="1" vertex="1">
          <mxGeometry x="230" y="110" width="100" height="300" as="geometry" />
        </mxCell>
        <mxCell id="Nl6Qnyx7027qB_0owJBx-10" value="" style="html=1;points=[];perimeter=orthogonalPerimeter;" parent="Nl6Qnyx7027qB_0owJBx-8" vertex="1">
          <mxGeometry x="45" y="100" width="10" height="160" as="geometry" />
        </mxCell>
        <mxCell id="vZi_6Wa-V15glwkgxytT-4" value="异步回调更新工单状态" style="html=1;verticalAlign=bottom;endArrow=open;dashed=1;endSize=8;rounded=0;exitX=-0.4;exitY=0.925;exitDx=0;exitDy=0;exitPerimeter=0;" edge="1" parent="Nl6Qnyx7027qB_0owJBx-8">
          <mxGeometry relative="1" as="geometry">
            <mxPoint x="236" y="227" as="sourcePoint" />
            <mxPoint x="55" y="226" as="targetPoint" />
          </mxGeometry>
        </mxCell>
        <mxCell id="Nl6Qnyx7027qB_0owJBx-9" value="工单系统" style="shape=umlLifeline;perimeter=lifelinePerimeter;whiteSpace=wrap;html=1;container=1;collapsible=0;recursiveResize=0;outlineConnect=0;" parent="1" vertex="1">
          <mxGeometry x="425" y="110" width="100" height="300" as="geometry" />
        </mxCell>
        <mxCell id="Nl6Qnyx7027qB_0owJBx-13" value="" style="html=1;points=[];perimeter=orthogonalPerimeter;" parent="Nl6Qnyx7027qB_0owJBx-9" vertex="1">
          <mxGeometry x="45" y="110" width="10" height="120" as="geometry" />
        </mxCell>
        <mxCell id="Nl6Qnyx7027qB_0owJBx-11" value="工单创建人" style="shape=umlActor;verticalLabelPosition=bottom;verticalAlign=top;html=1;" parent="1" vertex="1">
          <mxGeometry x="70" y="220" width="30" height="60" as="geometry" />
        </mxCell>
        <mxCell id="Nl6Qnyx7027qB_0owJBx-17" value="创建工单" style="html=1;verticalAlign=bottom;startArrow=oval;startFill=1;endArrow=block;startSize=8;rounded=0;" parent="1" edge="1">
          <mxGeometry y="10" width="60" relative="1" as="geometry">
            <mxPoint x="143" y="230" as="sourcePoint" />
            <mxPoint x="273" y="230" as="targetPoint" />
            <mxPoint as="offset" />
          </mxGeometry>
        </mxCell>
        <mxCell id="Nl6Qnyx7027qB_0owJBx-18" value="创建工单" style="html=1;verticalAlign=bottom;startArrow=oval;startFill=1;endArrow=block;startSize=8;rounded=0;" parent="1" edge="1">
          <mxGeometry y="10" width="60" relative="1" as="geometry">
            <mxPoint x="290" y="241" as="sourcePoint" />
            <mxPoint x="470" y="240" as="targetPoint" />
            <mxPoint as="offset" />
            <Array as="points">
              <mxPoint x="450" y="240" />
            </Array>
          </mxGeometry>
        </mxCell>
        <mxCell id="Nl6Qnyx7027qB_0owJBx-20" value="返回创建响应" style="html=1;verticalAlign=bottom;endArrow=open;dashed=1;endSize=8;rounded=0;" parent="1" edge="1">
          <mxGeometry relative="1" as="geometry">
            <mxPoint x="466" y="299" as="sourcePoint" />
            <mxPoint x="285.5" y="299" as="targetPoint" />
          </mxGeometry>
        </mxCell>
        <mxCell id="Nl6Qnyx7027qB_0owJBx-21" value="AS" style="shape=umlLifeline;perimeter=lifelinePerimeter;whiteSpace=wrap;html=1;container=1;collapsible=0;recursiveResize=0;outlineConnect=0;" parent="1" vertex="1">
          <mxGeometry x="620" y="110" width="100" height="300" as="geometry" />
        </mxCell>
        <mxCell id="Nl6Qnyx7027qB_0owJBx-22" value="" style="html=1;points=[];perimeter=orthogonalPerimeter;" parent="Nl6Qnyx7027qB_0owJBx-21" vertex="1">
          <mxGeometry x="45" y="130" width="10" height="70" as="geometry" />
        </mxCell>
        <mxCell id="Nl6Qnyx7027qB_0owJBx-23" value="获取售后单信息" style="html=1;verticalAlign=bottom;startArrow=oval;startFill=1;endArrow=block;startSize=8;rounded=0;" parent="1" edge="1">
          <mxGeometry x="0.0562" y="9" width="60" relative="1" as="geometry">
            <mxPoint x="485" y="249.5" as="sourcePoint" />
            <mxPoint x="665" y="248.5" as="targetPoint" />
            <mxPoint as="offset" />
            <Array as="points">
              <mxPoint x="645" y="248.5" />
            </Array>
          </mxGeometry>
        </mxCell>
        <mxCell id="Nl6Qnyx7027qB_0owJBx-28" value="返回售后单信息" style="html=1;verticalAlign=bottom;endArrow=open;dashed=1;endSize=8;rounded=0;" parent="1" edge="1">
          <mxGeometry relative="1" as="geometry">
            <mxPoint x="662" y="286" as="sourcePoint" />
            <mxPoint x="481.5" y="286" as="targetPoint" />
          </mxGeometry>
        </mxCell>
      </root>
    </mxGraphModel>
  </diagram>
</mxfile>
